Did not see this here in 720p.                       						

												

												

												

All credit to the original uploader. 								

												

												

												

Enjoy and please share.										

												

												

						

TTLTTLTTLTTLTTLTTLTTLTTLTTLTTLTTLTTLTTLTTLTTL							

												

												

							

Silk_S02_E01_720p.HDTV_x264-fov.TTL.mkv
Format                           : Matroska
File size                        : 885 MiB
Duration                         : 57mn 51s
Overall bit rate                 : 2 137 Kbps
Encoded date                     : UTC 2012-05-20 22:31:13
Writing application              : mkvmerge v2.4.0 ('Fumbling Towards Ecstasy') built on 

Oct 11 2008 20:13:15
Writing library                  : libebml v0.7.7 + libmatroska v0.8.1

Video
ID                               : 1
Format                           : AVC
Format/Info                      : Advanced Video Codec
Format profile                   : High@L4.1
Format settings, CABAC           : Yes
Format settings, ReFrames        : 5 frames
Muxing mode                      : Container profile=Unknown@4.1
Codec ID                         : V_MPEG4/ISO/AVC
Duration                         : 57mn 51s
Bit rate                         : 1 903 Kbps
Width                            : 1 280 pixels
Height                           : 720 pixels
Display aspect ratio             : 16:9
Frame rate                       : 25.000 fps
Resolution                       : 8 bits
Colorimetry                      : 4:2:0
Scan type                        : Progressive
Bits/(Pixel*Frame)               : 0.083
Stream size                      : 787 MiB (89%)
Writing library                  : x264 core 122 r2184 5c85e0a

Language                         : English

Audio
ID                               : 2
Format                           : AC-3
Format/Info                      : Audio Coding 3
Codec ID                         : A_AC3
Duration                         : 57mn 51s
Bit rate mode                    : Constant
Bit rate                         : 192 Kbps
Channel(s)                       : 2 channels
Channel positions                : L R
Sampling rate                    : 48.0 KHz
Stream size                      : 79.5 MiB (9%)

												

												

												

			